<svg width="97" height="68" xmlns="http://www.w3.org/2000/svg">
        <path d="M76.347 56.19a8.98 8.98 0 0 1-8.983-8.98c0-4.96 4.02-8.99 8.983-8.99 4.963 0 8.988 4.03 8.988 8.99s-4.025 8.98-8.988 8.98zm18.855-7.05v-3.65c0-.73.475-1.35 1.133-1.57a20.18 20.18 0 0 0-3.387-8.32c-.633.38-1.461.29-2.004-.25l-2.586-2.59a1.64 1.64 0 0 1-.234-2.03 20.058 20.058 0 0 0-8.324-3.48 1.653 1.653 0 0 1-1.623 1.36h-3.656c-.813 0-1.485-.59-1.624-1.36-3.074.53-5.91 1.75-8.341 3.49.461.65.402 1.55-.176 2.13l-2.586 2.58c-.566.57-1.443.64-2.084.21a20.151 20.151 0 0 0-3.365 8.36c.738.17 1.291.83 1.291 1.61v3.66c0 .76-.514 1.39-1.209 1.59a20.138 20.138 0 0 0 3.545 8.25 1.65 1.65 0 0 1 1.922.3l2.585 2.58c.499.5.612 1.24.336 1.85a20.195 20.195 0 0 0 8.317 3.35c.242-.61.836-1.04 1.531-1.04h3.654c.678 0 1.258.41 1.514.99a20.085 20.085 0 0 0 8.268-3.45c-.245-.6-.125-1.31.359-1.8l2.586-2.58c.484-.49 1.197-.6 1.795-.36A20.204 20.204 0 0 0 96.3 50.7a1.639 1.639 0 0 1-1.098-1.56z" fill="#52524F"/>
        <path d="M76.341 43.25a3.975 3.975 0 0 0 0 7.95 3.975 3.975 0 0 0 0-7.95M11.796 53.56a2.235 2.235 0 1 0 0 4.47c1.236 0 2.24-1 2.24-2.24 0-1.23-1.004-2.23-2.24-2.23" fill="#8E908C"/>
        <path d="M11.802 60.84a5.058 5.058 0 0 1-5.063-5.06c0-2.79 2.266-5.06 5.063-5.06a5.064 5.064 0 0 1 5.062 5.06c0 2.8-2.267 5.06-5.062 5.06zm-.006-16.46C5.493 44.38.384 49.49.384 55.79c0 6.31 5.109 11.42 11.412 11.42 6.305 0 11.414-5.11 11.414-11.42 0-6.3-5.109-11.41-11.414-11.41z" fill="#52524F"/>
        <path d="M73.401 18.51l.475-2.37c.592-1.87 1.326-2.64 2.523-2.65l10.452-.05h.009c1.166 0 2.02.89 2.537 2.63l.514 2.44h-16.51zm18.289 5.12c2.114.02 3.532-.08 3.532-2.44 0-2.64-1.784-2.69-4.332-2.68l-.561-2.66-.01-.04c-.81-2.74-2.324-3.32-3.459-3.32h-.013l-10.451.04c-2.122.02-2.954 1.8-3.44 3.35l-.529 2.63h-2.832s-.237.09-.657.28l1.782-7.4a2.665 2.665 0 0 0-1.961-3.21 2.656 2.656 0 0 0-3.197 1.96l-2.819 11.72c-.045.18-.066.36-.072.53-.129.09-.262.19-.393.28l-6.429-.02a2.661 2.661 0 0 0-2.664 2.65 2.658 2.658 0 0 0 2.642 2.66l.442.01c-3.465 3.83-6.358 8.89-6.782 15.28h-8.81l2.427-11.18c-.208-.6-.906-2.03-1.763-3.58l2.711-2.76 2.271 2.23a1.8 1.8 0 0 0 2.533-.02c.692-.71.68-1.84-.025-2.54l-5.82-5.71a1.8 1.8 0 0 0-2.533.02c-.696.71-.684 1.85.021 2.54l1.988 1.95-2.287 2.33c-1.131-1.84-2.289-3.4-2.885-3.4l-15.39.6V9.84c0-1.02-.633-1.89-1.529-2.25V.35h-3.354l-.797 1.14h2.342v6.1a2.425 2.425 0 0 0-1.529 2.25v14.14l-9.231.48a3.986 3.986 0 0 0-3.98 3.98l.828 14.38A14.75 14.75 0 0 1 11.796 41c3.76 0 7.187 1.4 9.797 3.71l.107.09c.049.05.094.09.141.13.035.03.07.06.105.1.047.04.092.09.139.13.031.03.066.07.098.1.046.04.091.09.138.13a9.503 9.503 0 0 1 .233.25l.088.09.138.15c.03.03.057.06.086.1l.133.15c.029.03.057.06.084.1l.133.15c.025.04.053.07.078.1.043.06.086.11.129.16.025.04.051.07.078.1.041.06.082.11.125.17.025.03.049.06.074.1.041.05.084.11.123.17.024.03.049.06.073.1.041.05.078.11.117.17.025.03.049.07.07.1.039.06.08.12.117.17.022.04.045.07.067.11.037.06.074.12.111.17.021.04.045.08.066.11l.106.18c.021.03.045.07.064.11l.102.18c.021.04.043.07.062.11.034.06.065.12.098.18l.061.12c.033.06.062.12.093.18.02.04.037.08.059.12l.088.18c.017.04.037.08.058.13.026.05.055.11.08.18l.057.12.078.18.055.14.072.18c.018.04.035.09.051.13l.068.18c.016.05.033.1.051.14l.061.18.048.15.057.17c.016.05.031.11.047.16.018.05.035.11.051.17.015.05.031.11.047.16.015.05.031.11.045.17.015.05.029.11.044.17.014.05.026.11.038.16.013.06.029.12.043.18.011.05.023.1.035.16l.037.18a3.83 3.83 0 0 1 .066.36c.01.04.018.09.026.14a5.584 5.584 0 0 1 .052.34c.016.11.032.23.047.35h27.321a23.337 23.337 0 0 1-1.016-6.82c0-1.36.117-2.69.34-3.98h-.071c1.889-11.14 11.59-19.63 23.276-19.63v-.01h.597c2.954.08 11.536.88 17.75 7.1 0 0 1.063 1.89 1.596 0 0 0 .178-3-4.594-7.08z" fill="#D23537"/>
</svg>
