<?xml version="1.0" encoding="UTF-8"?>
<svg width="97px" height="68px" viewBox="0 0 97 68" version="1.1" xmlns="http://www.w3.org/2000/svg" xmlns:xlink="http://www.w3.org/1999/xlink">
    <!-- Generator: Sketch 49.3 (51167) - http://www.bohemiancoding.com/sketch -->
    <title>tractor 3</title>
    <desc>Created with Sketch.</desc>
    <defs></defs>
    <g id="Page-1" stroke="none" stroke-width="1" fill="none" fill-rule="evenodd">
        <g id="Sketchapp-Sources-Submission" transform="translate(-557.000000, -2594.000000)">
            <g id="Farm-Icons" transform="translate(140.000000, 76.000000)">
                <g id="tractor-3" transform="translate(417.000000, 2518.000000)">
                    <path d="M76.347,56.19 C71.384,56.19 67.364,52.17 67.364,47.21 C67.364,42.25 71.384,38.22 76.347,38.22 C81.31,38.22 85.335,42.25 85.335,47.21 C85.335,52.17 81.31,56.19 76.347,56.19 Z M95.202,49.14 L95.202,45.49 C95.202,44.76 95.677,44.14 96.335,43.92 C95.837,40.87 94.655,38.04 92.948,35.6 C92.315,35.98 91.487,35.89 90.944,35.35 L88.358,32.76 C87.806,32.21 87.728,31.37 88.124,30.73 C85.694,28.99 82.864,27.77 79.8,27.25 C79.661,28.02 78.989,28.61 78.177,28.61 L74.521,28.61 C73.708,28.61 73.036,28.02 72.897,27.25 C69.823,27.78 66.987,29 64.556,30.74 C65.017,31.39 64.958,32.29 64.38,32.87 L61.794,35.45 C61.228,36.02 60.351,36.09 59.71,35.66 C58.007,38.11 56.831,40.95 56.345,44.02 C57.083,44.19 57.636,44.85 57.636,45.63 L57.636,49.29 C57.636,50.05 57.122,50.68 56.427,50.88 C56.983,53.92 58.22,56.73 59.972,59.13 C60.593,58.81 61.374,58.91 61.894,59.43 L64.479,62.01 C64.978,62.51 65.091,63.25 64.815,63.86 C67.253,65.55 70.077,66.72 73.132,67.21 C73.374,66.6 73.968,66.17 74.663,66.17 L78.317,66.17 C78.995,66.17 79.575,66.58 79.831,67.16 C82.874,66.64 85.683,65.43 88.099,63.71 C87.854,63.11 87.974,62.4 88.458,61.91 L91.044,59.33 C91.528,58.84 92.241,58.73 92.839,58.97 C94.563,56.55 95.772,53.74 96.3,50.7 C95.661,50.48 95.202,49.87 95.202,49.14 Z" id="Fill-347" fill="#52524F"></path>
                    <path d="M76.341,43.25 C74.144,43.25 72.366,45.03 72.366,47.23 C72.366,49.42 74.144,51.2 76.341,51.2 C78.534,51.2 80.313,49.42 80.313,47.23 C80.313,45.03 78.534,43.25 76.341,43.25" id="Fill-348" fill="#8E908C"></path>
                    <path d="M11.796,53.56 C10.56,53.56 9.558,54.56 9.558,55.79 C9.558,57.03 10.56,58.03 11.796,58.03 C13.032,58.03 14.036,57.03 14.036,55.79 C14.036,54.56 13.032,53.56 11.796,53.56" id="Fill-349" fill="#8E908C"></path>
                    <path d="M11.802,60.84 C9.005,60.84 6.739,58.58 6.739,55.78 C6.739,52.99 9.005,50.72 11.802,50.72 C14.597,50.72 16.864,52.99 16.864,55.78 C16.864,58.58 14.597,60.84 11.802,60.84 Z M11.796,44.38 C5.493,44.38 0.384,49.49 0.384,55.79 C0.384,62.1 5.493,67.21 11.796,67.21 C18.101,67.21 23.21,62.1 23.21,55.79 C23.21,49.49 18.101,44.38 11.796,44.38 Z" id="Fill-350" fill="#52524F"></path>
                    <path d="M73.401,18.51 L73.876,16.14 C74.468,14.27 75.202,13.5 76.399,13.49 L86.851,13.44 C86.854,13.44 86.856,13.44 86.86,13.44 C88.026,13.44 88.88,14.33 89.397,16.07 L89.911,18.51 L73.401,18.51 Z M91.69,23.63 C93.804,23.65 95.222,23.55 95.222,21.19 C95.222,18.55 93.438,18.5 90.89,18.51 L90.329,15.85 L90.319,15.81 C89.509,13.07 87.995,12.49 86.86,12.49 C86.856,12.49 86.851,12.49 86.847,12.49 L76.396,12.53 C74.274,12.55 73.442,14.33 72.956,15.88 L72.427,18.51 L69.595,18.51 C69.595,18.51 69.358,18.6 68.938,18.79 L70.72,11.39 C71.062,9.96 70.185,8.53 68.759,8.18 C67.335,7.84 65.903,8.72 65.562,10.14 L62.743,21.86 C62.698,22.04 62.677,22.22 62.671,22.39 C62.542,22.48 62.409,22.58 62.278,22.67 L55.849,22.65 C54.384,22.65 53.192,23.83 53.185,25.3 C53.181,26.76 54.364,27.95 55.827,27.96 L56.269,27.97 C52.804,31.8 49.911,36.86 49.487,43.25 L40.677,43.25 L43.104,32.07 C42.896,31.47 42.198,30.04 41.341,28.49 L44.052,25.73 L46.323,27.96 C47.028,28.65 48.163,28.64 48.856,27.94 C49.548,27.23 49.536,26.1 48.831,25.4 L43.011,19.69 C42.302,19 41.169,19.01 40.478,19.71 C39.782,20.42 39.794,21.56 40.499,22.25 L42.487,24.2 L40.2,26.53 C39.069,24.69 37.911,23.13 37.315,23.13 L21.925,23.73 L21.925,9.84 C21.925,8.82 21.292,7.95 20.396,7.59 L20.396,0.35 L17.042,0.35 L16.245,1.49 L18.587,1.49 L18.587,7.59 C17.69,7.95 17.058,8.82 17.058,9.84 L17.058,23.98 L7.827,24.46 C5.63,24.46 3.847,26.25 3.847,28.44 L4.675,42.82 C6.786,41.66 9.216,41 11.796,41 C15.556,41 18.983,42.4 21.593,44.71 C21.63,44.74 21.665,44.77 21.7,44.8 C21.749,44.85 21.794,44.89 21.841,44.93 C21.876,44.96 21.911,44.99 21.946,45.03 C21.993,45.07 22.038,45.12 22.085,45.16 C22.116,45.19 22.151,45.23 22.183,45.26 C22.229,45.3 22.274,45.35 22.321,45.39 C22.353,45.43 22.384,45.46 22.415,45.49 C22.462,45.54 22.509,45.59 22.554,45.64 C22.583,45.67 22.612,45.7 22.642,45.73 C22.688,45.78 22.733,45.83 22.78,45.88 C22.81,45.91 22.837,45.94 22.866,45.98 C22.909,46.03 22.956,46.08 22.999,46.13 C23.028,46.16 23.056,46.19 23.083,46.23 C23.128,46.28 23.171,46.33 23.216,46.38 C23.241,46.42 23.269,46.45 23.294,46.48 C23.337,46.54 23.38,46.59 23.423,46.64 C23.448,46.68 23.474,46.71 23.501,46.74 C23.542,46.8 23.583,46.85 23.626,46.91 C23.651,46.94 23.675,46.97 23.7,47.01 C23.741,47.06 23.784,47.12 23.823,47.18 C23.847,47.21 23.872,47.24 23.896,47.28 C23.937,47.33 23.974,47.39 24.013,47.45 C24.038,47.48 24.062,47.52 24.083,47.55 C24.122,47.61 24.163,47.67 24.2,47.72 C24.222,47.76 24.245,47.79 24.267,47.83 C24.304,47.89 24.341,47.95 24.378,48 C24.399,48.04 24.423,48.08 24.444,48.11 C24.479,48.17 24.515,48.23 24.55,48.29 C24.571,48.32 24.595,48.36 24.614,48.4 C24.649,48.46 24.683,48.52 24.716,48.58 C24.737,48.62 24.759,48.65 24.778,48.69 C24.812,48.75 24.843,48.81 24.876,48.87 C24.897,48.91 24.917,48.95 24.937,48.99 C24.97,49.05 24.999,49.11 25.03,49.17 C25.05,49.21 25.067,49.25 25.089,49.29 C25.118,49.35 25.147,49.41 25.177,49.47 C25.194,49.51 25.214,49.55 25.235,49.6 C25.261,49.65 25.29,49.71 25.315,49.78 C25.335,49.82 25.353,49.86 25.372,49.9 C25.397,49.96 25.425,50.02 25.45,50.08 C25.47,50.13 25.485,50.17 25.505,50.22 C25.528,50.28 25.552,50.34 25.577,50.4 C25.595,50.44 25.612,50.49 25.628,50.53 C25.651,50.59 25.673,50.65 25.696,50.71 C25.712,50.76 25.729,50.81 25.747,50.85 C25.767,50.91 25.788,50.97 25.808,51.03 C25.825,51.08 25.841,51.13 25.856,51.18 C25.876,51.24 25.896,51.3 25.913,51.35 C25.929,51.4 25.944,51.46 25.96,51.51 C25.978,51.56 25.995,51.62 26.011,51.68 C26.026,51.73 26.042,51.79 26.058,51.84 C26.073,51.89 26.089,51.95 26.103,52.01 C26.118,52.06 26.132,52.12 26.147,52.18 C26.161,52.23 26.173,52.29 26.185,52.34 C26.198,52.4 26.214,52.46 26.228,52.52 C26.239,52.57 26.251,52.62 26.263,52.68 C26.276,52.74 26.288,52.8 26.3,52.86 C26.312,52.91 26.323,52.96 26.331,53.01 C26.345,53.08 26.356,53.15 26.366,53.22 C26.376,53.26 26.384,53.31 26.392,53.36 C26.405,53.43 26.417,53.51 26.427,53.58 C26.435,53.62 26.44,53.66 26.444,53.7 C26.46,53.81 26.476,53.93 26.491,54.05 L53.812,54.05 C53.153,51.89 52.796,49.6 52.796,47.23 C52.796,45.87 52.913,44.54 53.136,43.25 L53.065,43.25 C54.954,32.11 64.655,23.62 76.341,23.62 L76.341,23.61 L76.938,23.61 C79.892,23.69 88.474,24.49 94.688,30.71 C94.688,30.71 95.751,32.6 96.284,30.71 C96.284,30.71 96.462,27.71 91.69,23.63 Z" id="Fill-351" fill="#D23537"></path>
                </g>
            </g>
        </g>
    </g>
</svg>